<svg width="120" height="120" viewBox="0 0 120 120" fill="none" xmlns="http://www.w3.org/2000/svg">
<path d="M50.0047 106.006L46.9182 115.266C46.3742 116.9 44.8456 118.001 43.1239 118.001H37.1267C35.2915 118.002 33.6915 116.753 33.2465 114.972L30.0139 102.008L42.0084 98.0101L50.0047 106.006Z" fill="#FDA9D5"/>
<path d="M89.9863 102.008L86.7458 114.972C86.3008 116.753 84.7008 118.002 82.8656 118.001H76.8684C75.1452 118.003 73.6146 116.901 73.0701 115.266L69.9955 106.006L77.9919 98.0101L89.9863 102.008Z" fill="#FDA9D5"/>
<path d="M60.0001 38.0377C69.9367 38.0377 77.9919 29.9826 77.9919 20.046C77.9919 10.1095 69.9367 2.05429 60.0001 2.05429C50.0636 2.05429 42.0084 10.1095 42.0084 20.046C42.0084 29.9826 50.0636 38.0377 60.0001 38.0377Z" fill="#FFD33F"/>
<path d="M16.0204 78.0193C16.0204 53.73 35.7108 34.0396 60.0001 34.0396C84.2895 34.0396 103.98 53.73 103.98 78.0193C103.98 93.4762 91.4497 106.006 75.9928 106.006H44.0075C28.5506 106.006 16.0204 93.4762 16.0204 78.0193Z" fill="#FECBE6"/>
<path d="M18.0195 56.0294C18.0195 44.9888 26.9696 36.0386 38.0103 36.0386V56.0294H18.0195Z" fill="#FDBADD"/>
<path d="M101.981 56.0294C101.981 44.9888 93.0307 36.0386 81.9901 36.0386V56.0294H101.981Z" fill="#FDBADD"/>
<path d="M60.0001 98.0101C67.7285 98.0101 73.9937 93.535 73.9937 88.0147C73.9937 82.4944 67.7285 78.0193 60.0001 78.0193C52.2717 78.0193 46.0066 82.4944 46.0066 88.0147C46.0066 93.535 52.2717 98.0101 60.0001 98.0101Z" fill="#FDA9D5"/>
<path d="M28.3347 103.536L31.3153 115.458C31.9833 118.128 34.3824 120 37.1347 120H43.1319C45.7132 120 48.0047 118.349 48.8213 115.9L51.4461 108.006H68.5542L71.195 115.9C72.0104 118.345 74.2968 119.996 76.8744 120H82.8716C85.6238 120 88.023 118.128 88.6909 115.458L91.6715 103.536C100.55 98.0936 105.967 88.4328 105.979 78.0193C105.976 71.0965 104.412 64.2632 101.403 58.0285H101.981C103.085 58.0285 103.98 57.1334 103.98 56.0294C103.966 43.8908 94.1287 34.0538 81.99 34.0396C80.886 34.0396 79.9909 34.9347 79.9909 36.0386V36.6164C78.0603 35.6848 76.0662 34.8904 74.0237 34.2395C81.893 26.4955 81.9948 13.8386 74.2508 5.96924C66.5069 -1.90013 53.85 -2.00184 45.9806 5.7421C38.1112 13.486 38.0095 26.143 45.7534 34.0123C45.8287 34.0888 45.9044 34.1645 45.9806 34.2395C43.9368 34.8934 41.9414 35.6906 40.0093 36.6244V36.0386C40.0093 34.9347 39.1142 34.0396 38.0103 34.0396C25.8716 34.0538 16.0346 43.8908 16.0204 56.0294C16.0204 57.1334 16.9155 58.0285 18.0195 58.0285H18.5972C15.5878 64.2632 14.0238 71.0965 14.0213 78.0193C14.0345 88.4343 19.4538 98.0953 28.3347 103.536ZM45.021 114.634C44.7492 115.451 43.986 116.001 43.1259 116.002H37.1287C36.2103 116.003 35.4097 115.378 35.1876 114.487L33.0425 105.902C36.5322 107.289 40.2527 108.002 44.0075 108.006H47.23L45.021 114.634ZM84.8027 114.487C84.5806 115.378 83.7799 116.003 82.8616 116.002H76.8644C76.0043 116.001 75.2411 115.451 74.9692 114.634L72.7702 108.006H75.9928C79.7455 108.002 83.4638 107.288 86.9517 105.902L84.8027 114.487ZM83.9891 38.1477C92.337 39.0952 98.9242 45.6825 99.8718 54.0304H83.9891V38.1477ZM44.0075 20.046C43.9902 11.2136 51.1365 4.03938 59.9689 4.02214C68.8013 4.0049 75.9755 11.1511 75.9928 19.9835C76.0028 25.1444 73.5217 29.9932 69.3298 33.004C63.1734 31.7206 56.8186 31.7206 50.6624 33.004C46.4886 30.0069 44.012 25.1846 44.0075 20.046ZM36.0112 38.1477V54.0304H20.1285C21.0761 45.6827 27.6633 39.0955 36.0112 38.1477ZM38.0103 58.0285C39.1142 58.0285 40.0093 57.1334 40.0093 56.0294V41.1203C52.4753 34.3449 67.5249 34.3449 79.9909 41.1203V56.0294C79.9909 57.1334 80.886 58.0285 81.99 58.0285H96.8991C100.23 64.1657 101.976 71.0368 101.981 78.0193C101.964 92.3652 90.3387 103.991 75.9928 104.007H44.0075C29.6616 103.991 18.036 92.3652 18.0195 78.0193C18.0237 71.0368 19.7704 64.1655 23.1011 58.0285H38.0103Z" fill="#240000"/>
<path d="M60.0001 100.009C68.8181 100.009 75.9928 94.6297 75.9928 88.0147C75.9928 81.3998 68.8181 76.0203 60.0001 76.0203C51.1822 76.0203 44.0075 81.3998 44.0075 88.0147C44.0075 94.6297 51.1822 100.009 60.0001 100.009ZM60.0001 80.0184C66.5011 80.0184 71.9946 83.6807 71.9946 88.0147C71.9946 92.3487 66.5011 96.0111 60.0001 96.0111C53.4991 96.0111 48.0056 92.3487 48.0056 88.0147C48.0056 83.6807 53.4991 80.0184 60.0001 80.0184Z" fill="#240000"/>
<path d="M61.9992 29.6736C65.116 28.5758 66.7527 25.1592 65.6548 22.0424C64.8101 19.6445 62.5424 18.0419 60.0001 18.0469C58.8961 18.0469 58.001 17.1519 58.001 16.0479C58.001 14.9439 58.8961 14.0488 60.0001 14.0488C61.1041 14.0488 61.9992 14.9439 61.9992 16.0479H65.9973C65.9868 13.5155 64.3868 11.2626 61.9992 10.4185V8.05154H58.001V10.4185C54.8842 11.5162 53.2475 14.9329 54.3455 18.0497C55.1901 20.4476 57.4578 22.0501 60.0001 22.0451C61.1041 22.0451 61.9992 22.9402 61.9992 24.0442C61.9992 25.1482 61.1041 26.0433 60.0001 26.0433C58.8961 26.0433 58.001 25.1482 58.001 24.0442H54.0029C54.0134 26.5765 55.6134 28.8295 58.001 29.6736V32.0405H61.9992V29.6736Z" fill="#240000"/>
<path d="M40.0093 74.0211C40.1435 74.0176 40.2769 74.0044 40.4091 73.9812C40.5343 73.9594 40.6558 73.9189 40.769 73.8612C40.8964 73.8175 41.0173 73.757 41.1288 73.6813L41.4287 73.4414C42.2018 72.653 42.2018 71.3911 41.4287 70.6027L41.1288 70.3628C41.0173 70.2871 40.8964 70.2266 40.769 70.1829C40.6558 70.1252 40.5343 70.0847 40.4091 70.063C39.7507 69.9285 39.0685 70.1309 38.59 70.6027C37.8061 71.3801 37.8008 72.646 38.5782 73.4299C38.9565 73.8112 39.4721 74.0244 40.0093 74.0211Z" fill="#240000"/>
<path d="M79.9909 74.0212C80.252 74.0179 80.5102 73.9637 80.7506 73.8612C80.9927 73.7598 81.2158 73.6178 81.4102 73.4414C81.7753 73.0581 81.9822 72.5513 81.99 72.0221C81.9867 71.761 81.9325 71.5028 81.8301 71.2624C81.6484 70.7602 81.2528 70.3646 80.7506 70.1829C80.0061 69.8698 79.1463 70.0355 78.5716 70.6027C78.3951 70.7971 78.2532 71.0203 78.1518 71.2624C78.0493 71.5028 77.9951 71.761 77.9918 72.0221C77.9808 73.1151 78.8577 74.0102 79.9507 74.0212C79.9642 74.0214 79.9774 74.0214 79.9909 74.0212Z" fill="#240000"/>
<path d="M56.002 90.0138C57.095 90.0028 57.9721 89.108 57.9613 88.015C57.9506 86.922 57.0555 86.0449 55.9625 86.0556C54.8695 86.0666 53.9924 86.9615 54.0031 88.0545C54.0084 88.5725 54.2163 89.0677 54.5826 89.4341C54.966 89.7992 55.4727 90.0061 56.002 90.0138Z" fill="#240000"/>
<path d="M63.9983 90.0138C65.0913 90.0028 65.9684 89.108 65.9577 88.015C65.9469 86.922 65.0518 86.0449 63.9588 86.0556C62.8658 86.0666 61.9887 86.9615 61.9995 88.0545C62.0047 88.5725 62.2126 89.0677 62.5789 89.4341C62.9623 89.7992 63.469 90.0061 63.9983 90.0138Z" fill="#240000"/>
</svg>
